<svg width="32" height="32" viewBox="0 0 32 32" fill="none" xmlns="http://www.w3.org/2000/svg">
<path d="M29.1625 1.20752H2.84002C1.93841 1.20752 1.20752 1.93841 1.20752 2.84002V29.1625C1.20752 30.0641 1.93841 30.795 2.84002 30.795H29.1625C30.0641 30.795 30.795 30.0641 30.795 29.1625V2.84002C30.795 1.93841 30.0641 1.20752 29.1625 1.20752Z" fill="#3D5A98"/>
<path d="M21.62 30.7925V19.335H25.465L26.04 14.87H21.62V12.02C21.62 10.7275 21.98 9.84498 23.8325 9.84498H26.1975V5.84498C25.0523 5.72584 23.9014 5.66909 22.75 5.67498C19.345 5.67498 17 7.74998 17 11.5775V14.87H13.155V19.335H17V30.7925H21.62Z" fill="white"/>
</svg>
