<svg width="32" height="32" viewBox="0 0 32 32" fill="none" xmlns="http://www.w3.org/2000/svg">
<path d="M5.2045 25.3798H9.18175V15.7207L3.5 11.4595V23.6753C3.5 24.6185 4.26425 25.3798 5.2045 25.3798Z" fill="#4285F4"/>
<path d="M22.8181 25.3798H26.7955C27.7386 25.3798 28.5 24.6156 28.5 23.6753V11.4594L22.8181 15.7207" fill="#34A853"/>
<path d="M22.8181 8.33435V15.7207L28.5 11.4595V9.18647C28.5 7.0786 26.0937 5.87685 24.4091 7.1411" fill="#FBBC04"/>
<path d="M9.18188 15.7207V8.33448L16 13.4479L22.8181 8.33423V15.7206L16 20.8344" fill="#EA4335"/>
<path d="M3.5 9.1866V11.4593L9.18175 15.7207V8.33447L7.59087 7.14122C5.90337 5.87697 3.5 7.07872 3.5 9.1866Z" fill="#C5221F"/>
</svg>
